<svg xmlns="http://www.w3.org/2000/svg" viewBox="0 0 350 302"><path fill="none" stroke="#702a37" stroke-width="2" d="M226.25 156.71q.05-.18-.02-.32a.35.35 0 0 0-.46-.16c-3.45 1.57-5.6 1.45-9.58.31q-6.12-1.77-12.15.55c-1.86.72-3.46.36-5.25-.05a.47.47 0 0 0-.55.61c2.32 6.64 11.94-.69 17.14 4.73 3.73 3.89 6.88 9.2 12.52 6.13a.67.66 58.9 0 1 .88.22l1.66 2.58a1.33 1.33 0 0 0 1.78.43l2.55-1.49a.7.69-28.5 0 1 .96.28l1.32 2.55a1.15 1.15 0 0 0 1.61.46l2.61-1.55a.72.72 0 0 1 .99.25l1.57 2.63a1.17 1.17 0 0 0 1.64.38l2.28-1.48a.8.78 49.2 0 1 .97.08c1.38 1.28 4.41 3.72 6.26 1.92q1.79-1.75-.52-2.71-8.27-3.44-16.93-5.68c-3.08-.8-11.11-3.22-9.74-7.38" vector-effect="non-scaling-stroke"/><path fill="#00532c" d="M226.25 156.71q.05-.18-.02-.32a.35.35 0 0 0-.46-.16c-3.45 1.57-5.6 1.45-9.58.31q-6.12-1.77-12.15.55c-1.86.72-3.46.36-5.25-.05a.47.47 0 0 0-.55.61c2.32 6.64 11.94-.69 17.14 4.73 3.73 3.89 6.88 9.2 12.52 6.13a.67.66 58.9 0 1 .88.22l1.66 2.58a1.33 1.33 0 0 0 1.78.43l2.55-1.49a.7.69-28.5 0 1 .96.28l1.32 2.55a1.15 1.15 0 0 0 1.61.46l2.61-1.55a.72.72 0 0 1 .99.25l1.57 2.63a1.17 1.17 0 0 0 1.64.38l2.28-1.48a.8.78 49.2 0 1 .97.08c1.38 1.28 4.41 3.72 6.26 1.92q1.79-1.75-.52-2.71-8.27-3.44-16.93-5.68c-3.08-.8-11.11-3.22-9.74-7.38 3.29 2.49 6.68 5.34 10.78 2.26a.55.55 0 0 1 .83.22l1.31 2.85a.45.45 0 0 0 .62.21l2.77-1.39a.58.58 0 0 1 .8.31l.98 2.52a.6.6 0 0 0 .79.33l2.79-1.15a.62.62 0 0 1 .81.33l1.06 2.5a.54.53-24.5 0 0 .73.27l2.54-1.28a.53.53 0 0 1 .7.21c2.21 3.92 8.39 3.1 8.36 6.86-.09 10.36-47.25 3.92-53.93 2.7a1.42 1.4-53.9 0 0-.93.15c-12.89 6.84-27.79 7.96-42.43 7.2a.87.86 82 0 0-.86 1.15c.97 2.85 13.51.4 10.65 9.61a1.35 1.35 0 0 1-2.05.71l-2.31-1.58a.91.91 0 0 0-1.42.64l-.41 3.4a1.04 1.03-66.6 0 1-1.69.67l-2.71-2.26a.94.94 0 0 0-1.54.6l-.42 3.28a1.17 1.17 0 0 1-1.9.75l-2.68-2.22a.54.53 28.3 0 0-.86.25l-1.11 3.59a.88.88 0 0 1-.84.62l-.93-.01a.97.96-10.6 0 1-.88-.6c-1.18-2.89-2.06-6.03-4.35-8.28-5.96-5.9-4.76-10.95 2.13-15.92q1.36-.97-.26-1.38c-2.15-.54-7.93 5.68-9.59 7.3-2.89 2.83-21.04 1-25.44.42a.94.92 78.8 0 1-.69-.47q-1.89-3.47-5.91-3.85a.48.47-77.5 0 1-.4-.63c1.61-4.58 2.02-9.04-2.99-11.52q-.57-.28-.89-.06a.42.41-43.8 0 0-.02.67c4.91 3.79 2.22 8.75-.27 13.06a.34.33-71.4 0 0 .24.5c6.8.86 10.64 2.91 7.16 10.72a1.37 1.36 24.2 0 1-1.81.68l-2.95-1.34a.75.74-71.2 0 0-1.03.51l-.86 3.63a.92.91 19.9 0 1-1.3.6l-3.79-1.88a.57.57 0 0 0-.83.51q.02 2.66-2.2 3.34a1.04 1.02 55.1 0 1-.92-.17c-6.79-5.3-5.91-12.21-3.18-19.38a.83.82 35.5 0 0-.15-.84c-12.17-13.93-9.19-35.28 1.57-48.96a.9.9 0 0 1 .78-.34l1.95.13a.75.74-71.9 0 0 .7-.36l4.02-6.59a1.67 1.67 0 0 1 2.09-.66l1.29.56a.77.76 33.2 0 0 .87-.18c1.69-1.8 4.26-7.74 7.79-4.77a.67.66 48.3 0 0 .79.05c2-1.3 3.59-4.09 5.94-4.3a1.01 1.01 0 0 1 .89.39l.9 1.19a.69.69 0 0 0 .99.1l4.81-4.15a.86.86 0 0 1 1.13.01l2.14 1.88a1.21 1.2 47.1 0 0 1.5.06c1.35-1.01 6.64-6.21 7.27-1.92a1.26 1.26 0 0 0 2 .82l4.97-3.68a1.25 1.25 0 0 1 .98-.23q1.59.28 2.01 1.92a.72.71 84.8 0 0 .63.53c2.33.15 4.57-2.8 6.14-3.91a.87.87 0 0 1 1.02 0l2.26 1.64a.62.62 0 0 0 .74-.01l4.64-3.55a.55.54 50.2 0 1 .74.07q1.13 1.22 2.69 1.51a.92.91 28.1 0 0 .81-.24l3.73-3.6a.95.94-51.3 0 1 1.13-.13l2.33 1.38a1.08 1.08 0 0 0 1.28-.13l3.18-2.97a.9.88-49.3 0 1 1.1-.09l1.87 1.28a.84.83-44.5 0 0 .93 0c1.37-.92 5.25-5.76 6.16-5.52a.76.74-85.7 0 1 .55.66c1.53 18.19-40.29 28.12-52.72 31.41-7.15 1.88-19.87 6.24-24.01 11.88-3.31 4.51 4.35 6.12 6.59 5.49 23.39-6.6 46.46-10.34 69.03-.2a1.09 1.09 0 0 0 .93-.02q4.79-2.4 10.12-1.35a.95.95 0 0 0 .85-.25c7.75-7.59 13.25-1.76 21.62-4.2a1.76 1.67-44.2 0 1 .91-.01q2.42.68 3.45 3.03a.6.59 71.5 0 0 .69.35q17.41-3.95 25.92-5.62 1.73-.34 3.95.12a1.29 1.27-11.8 0 1 .78.5c2.51 3.49-2.35 6.23-3.14 9.93a.63.62-71 0 1-.88.43l-3.72-1.76a.69.69 0 0 0-.92.34l-1.42 3.05a.88.87 25.9 0 1-1.2.41l-2.99-1.55a.7.69-63.8 0 0-.95.33l-1.57 3.44a.64.64 0 0 1-.87.3l-3.39-1.72a.64.64 0 0 0-.88.33l-1.27 3.14a.89.89 0 0 1-1.2.48l-3.19-1.44a.76.75-65.8 0 0-.99.38l-1.38 3.06a.71.7 17.9 0 1-.78.39c-1.18-.23-3.81-2.16-4.54-1.77Zm-107.36-34.68a.57.57 0 0 0-.06 1.06l3.54 1.6a.57.57 0 0 0 .8-.41l.58-2.95a.57.57 0 0 0-.73-.65l-4.13 1.35Zm-3.9 6.47a.42.42 0 0 0 .62-.34l.28-3.62a.42.42 0 0 0-.55-.43l-4.32 1.48a.42.42 0 0 0-.06.77l4.03 2.14Zm-10.91 2.1a.3.3 0 0 0-.02.54l3.92 1.96a.3.3 0 0 0 .43-.2l.97-4a.3.3 0 0 0-.41-.35l-4.89 2.05Zm8.99 7.33a.58.58 0 0 0 .83-.48l.22-2.95a.58.58 0 0 0-.75-.6l-3.88 1.2a.58.58 0 0 0-.08 1.08l3.66 1.75Zm-10.25 1.18a.47.47 0 0 0 .68-.38l.26-3.28a.47.47 0 0 0-.6-.49l-4.23 1.31a.47.47 0 0 0-.07.87l3.96 1.97Zm2.96 2.39a.57.57 0 0 0-.08 1.06l3.42 1.64a.57.57 0 0 0 .8-.38l.71-2.92a.57.57 0 0 0-.73-.67l-4.12 1.27Zm-5.19 4.57a.57.57 0 0 0 .84-.45l.3-2.97a.57.57 0 0 0-.73-.61l-3.82 1.12a.57.57 0 0 0-.11 1.05l3.52 1.86Zm126.95-2.94q-2-1.24-3.13.86-.82 1.52.86 1.13l2.02-.48q1.94-.46.25-1.51Zm-8.5 2.55c-2.02-2.09-5.4-3.01-6.17.56a1.01 1.01 0 0 0 1.18 1.21l4.72-.93a.5.5 0 0 0 .27-.84Zm-64.78.75a.51.51 0 0 0-.06.96l3.64 1.63a.51.51 0 0 0 .71-.34l.71-2.92a.51.51 0 0 0-.64-.61l-4.36 1.28Zm12.35 2.82a.57.57 0 0 0 .81-.47l.2-2.94a.57.57 0 0 0-.73-.58l-3.88 1.2a.57.57 0 0 0-.08 1.06l3.68 1.73Zm-20.98-1.94a.41.41 0 0 0-.04.75l3.78 1.8a.41.41 0 0 0 .57-.27l.88-3.47a.41.41 0 0 0-.54-.49l-4.65 1.68Zm29.18 3.47a.52.52 0 0 0 .77-.4l.34-3.22a.52.52 0 0 0-.67-.55l-3.99 1.21a.52.52 0 0 0-.1.95l3.65 2.01Zm-68.32-2.39a.56.56 0 0 0-.07 1.04l3.49 1.61a.56.56 0 0 0 .77-.36l.76-2.86a.56.56 0 0 0-.7-.68l-4.25 1.25Zm34.36 2.99a.47.47 0 0 0 .69-.38l.25-3.34a.47.47 0 0 0-.61-.49l-4.15 1.36a.47.47 0 0 0-.07.87l3.89 1.98Zm-39.36 1.68a.57.57 0 0 0 .82-.46l.28-2.97a.57.57 0 0 0-.72-.6l-3.94 1.13a.57.57 0 0 0-.1 1.05l3.66 1.85Zm26.63-2.32a.41.41 0 0 0-.03.77l3.9 1.68a.41.41 0 0 0 .56-.26l.98-3.36a.41.41 0 0 0-.53-.5l-4.88 1.67Zm54.68 2.7a.52.52 0 0 0 .74-.43l.23-3.13a.52.52 0 0 0-.67-.54l-4.08 1.28a.52.52 0 0 0-.07.96l3.85 1.86Zm-61.24 1.33 1.64.92a.57.57 0 0 0 .83-.36l.75-2.99a.58.58 0 0 0-.74-.69l-4.31 1.35a.58.58 0 0 0 .01 1.11l.91.27q.48.15.91.39Zm-10.38-1.08a.41.41 0 0 0-.06.75l3.84 1.88a.41.41 0 0 0 .58-.27l.79-3.4a.41.41 0 0 0-.52-.48l-4.63 1.52Zm45.18 2.69a.58.58 0 0 0 .83-.47l.25-2.99a.58.58 0 0 0-.75-.61l-3.88 1.19a.58.58 0 0 0-.09 1.07l3.64 1.81Zm8.32.18a.69.69 0 0 0 .99-.54l.27-2.59a.69.69 0 0 0-.86-.74l-3.56.93a.69.69 0 0 0-.14 1.29l3.3 1.65Zm-20.63-2.07a.52.52 0 0 0-.07.97l3.66 1.7a.52.52 0 0 0 .73-.36l.67-3.03a.52.52 0 0 0-.66-.61l-4.33 1.33Zm28.94 3.58a.75.75 0 0 0 1.06-.63l.17-2.44a.75.75 0 0 0-.96-.77l-3.36 1a.75.75 0 0 0-.1 1.4l3.19 1.44Zm-37.77-1.67a.46.46 0 0 0-.05.86l3.69 1.79a.46.46 0 0 0 .65-.31l.7-3.25a.46.46 0 0 0-.59-.54l-4.4 1.45Zm-29.41 3.49a.53.53 0 0 0 .77-.41l.3-3.24a.53.53 0 0 0-.68-.55l-4.02 1.25a.53.53 0 0 0-.09.98l3.72 1.97Zm21.49.01q1.33.96 2.96 1.27a.61.61 0 0 0 .71-.48l.56-2.86q.17-.85-.66-.57l-4.26 1.46a.47.47 0 0 0-.3.56q.12.48.49.46a.78.77-26.9 0 1 .5.16Zm-5.57 3.57a.58.58 0 0 0 .83-.48l.21-3.01a.58.58 0 0 0-.75-.59l-3.83 1.24a.58.58 0 0 0-.08 1.08l3.62 1.76Zm-8.38.23a.58.58 0 0 0 .82-.49l.21-2.97a.58.58 0 0 0-.76-.6l-3.85 1.24a.58.58 0 0 0-.07 1.07l3.65 1.75Zm37.81-2.88a.57.57 0 0 0-.12 1.05l3.55 1.87a.57.57 0 0 0 .82-.4l.57-2.94a.57.57 0 0 0-.7-.66l-4.12 1.08Zm8.63.41a.61.61 0 0 0-.08 1.14l3.32 1.54a.61.61 0 0 0 .85-.42l.6-2.7a.61.61 0 0 0-.77-.72l-3.92 1.16Zm-12.28.06a.62.62 0 0 0-.79-.76l-4.09 1.34a.62.62 0 0 0-.06 1.15l3.28 1.46a.62.62 0 0 0 .85-.39l.81-2.8Zm-13.76 2.46a.57.57 0 0 0-.06 1.06l3.44 1.61a.57.57 0 0 0 .8-.41l.56-2.91a.57.57 0 0 0-.74-.65l-4 1.3Zm-5.04 5.29a.52.52 0 0 0 .74-.43l.21-3.19a.52.52 0 0 0-.68-.53l-4.02 1.35a.52.52 0 0 0-.06.96l3.81 1.84Z"/><path fill="#e00041" d="M226.25 156.71q-.4 2.09 1.54 3.29c-1.37 4.16 6.66 6.58 9.74 7.38q8.66 2.24 16.93 5.68 2.31.96.52 2.71c-1.85 1.8-4.88-.64-6.26-1.92a.8.78 49.2 0 0-.97-.08l-2.28 1.48a1.17 1.17 0 0 1-1.64-.38l-1.57-2.63a.72.72 0 0 0-.99-.25l-2.61 1.55a1.15 1.15 0 0 1-1.61-.46l-1.32-2.55a.7.69-28.5 0 0-.96-.28l-2.55 1.49a1.33 1.33 0 0 1-1.78-.43l-1.66-2.58a.67.66 58.9 0 0-.88-.22c-5.64 3.07-8.79-2.24-12.52-6.13-5.2-5.42-14.82 1.91-17.14-4.73a.47.47 0 0 1 .55-.61c1.79.41 3.39.77 5.25.05q6.03-2.32 12.15-.55c3.98 1.14 6.13 1.26 9.58-.31a.35.35 0 0 1 .46.16q.07.14.02.32Z"/></svg>